<svg xmlns="http://www.w3.org/2000/svg" width="24" height="24" fill="none"><g><title>Layer 1</title><g id="svg_3"><path id="svg_4" fill="#212121" d="m21.06256,2.31249c0.5523,0 1,0.44772 1,1.00001l0,5.75004c0,0.55229 -0.4477,1.00005 -1,1.00005l-5.25,0c-0.5523,0 -1,-0.44776 -1,-1.00005c0,-0.55228 0.4477,-1 1,-1l3.3869,0c-0.9844,-1.1786 -2.2083,-2.11348 -3.6823,-2.56962c-2.0145,-0.62337 -4.1429,-0.5698 -6.10577,0.16034c-1.98103,0.73691 -3.81035,2.23127 -4.7218,3.89356c-0.26553,0.48427 -0.87336,0.66157 -1.35763,0.39606c-0.48426,-0.26553 -0.66158,-0.87336 -0.39605,-1.35763c1.17494,-2.14285 3.41441,-3.92722 5.7782,-4.80651c2.38195,-0.88606 4.96365,-0.94861 7.39425,-0.19644c1.5762,0.48774 2.8863,1.37945 3.9542,2.45882l0,-2.72862c0,-0.55229 0.4477,-1.00001 1,-1.00001z" opacity="undefined"/></g><g id="svg_2"><g id="svg_5"><path id="svg_6" fill="#212121" d="m7.52019,10.92475zm5.72932,0.06135c-0.4976,0 -0.9195,0.36598 -0.9899,0.8587l-0.50003,3.50049c-0.04488,0.3142 0.06202,0.631 0.28807,0.8538c0.22606,0.2228 0.54436,0.325 0.85786,0.2755l1.8205,-0.2875c0.9312,-0.147 1.7735,0.5728 1.7735,1.5157c0,0.8475 -0.6869,1.5344 -1.5342,1.5344l-0.2715,0c-0.4398,0 -0.8646,-0.1605 -1.1944,-0.4515l-0.3384,-0.2985c-0.4142,-0.3654 -1.04609,-0.3258 -1.41143,0.0885c-0.36533,0.4142 -0.32573,1.0462 0.08846,1.4116l0.33835,0.2985c0.69522,0.6133 1.59042,0.9517 2.51742,0.9517l0.2715,0c1.9519,0 3.5342,-1.5825 3.5342,-3.5347c0,-2.172 -1.9403,-3.83021 -4.0854,-3.4915l-0.4831,0.0763l0.1858,-1.30121l3.1327,0c0.5523,0 1,-0.44778 1,-1.00014c0,-0.55236 -0.4477,-1.00014 -1,-1.00014l-4,0z"/></g><path id="svg_1" fill="#212121" d="m2,3.25zm7.75015,8.75c0,-0.4194 -0.26172,-0.7943 -0.65545,-0.9388c-0.39373,-0.1445 -0.8358,-0.0279 -1.10712,0.2919c-0.07402,0.0872 -0.14725,0.1757 -0.22147,0.2654c-0.51532,0.6227 -1.07794,1.3025 -2.28045,2.024c-0.47358,0.2841 -0.62715,0.8984 -0.343,1.372c0.28415,0.4736 0.89841,0.6271 1.37199,0.343c0.48315,-0.2899 0.88922,-0.5813 1.2355,-0.8646l0,5.5069c0,0.5523 0.4478,1 1.00013,1c0.55224,-0.0001 0.99987,-0.4478 0.99987,-1l0,-7.9998z"/></g></g></svg>