<?xml version="1.0" encoding="utf-8"?>
<svg width="24" height="24" viewBox="0 0 24 24" fill="none" xmlns="http://www.w3.org/2000/svg">
  <path d="M 19.444 20.072 L 16.584 20.072 C 16.177 20.072 15.974 19.869 15.974 19.462 C 15.974 19.062 16.177 18.862 16.584 18.862 L 17.314 18.862 L 17.314 15.972 L 16.824 16.272 C 16.684 16.359 16.551 16.392 16.424 16.372 C 16.297 16.352 16.191 16.299 16.104 16.212 C 16.017 16.125 15.961 16.022 15.934 15.902 C 15.907 15.775 15.921 15.652 15.974 15.532 C 16.021 15.405 16.117 15.299 16.264 15.212 L 17.384 14.512 C 17.624 14.365 17.877 14.292 18.144 14.292 C 18.351 14.292 18.511 14.342 18.624 14.442 C 18.737 14.549 18.794 14.702 18.794 14.902 L 18.794 18.862 L 19.444 18.862 C 19.857 18.862 20.064 19.062 20.064 19.462 C 20.064 19.869 19.857 20.072 19.444 20.072 Z M 14.712 2.289 L 14.625 2.211 C 14.233 1.901 13.661 1.926 13.298 2.289 L 13.22 2.376 C 12.91 2.768 12.936 3.34 13.298 3.702 L 14.597 4.999 L 8.999 4.999 L 8.759 5.003 C 5.004 5.13 2 8.211 2 11.994 C 2 13.438 2.438 14.781 3.189 15.892 C 3.37 16.143 3.666 16.307 4 16.307 C 4.552 16.307 5 15.859 5 15.308 C 5 15.091 4.931 14.891 4.815 14.729 L 4.68 14.511 C 4.248 13.772 4 12.911 4 11.994 C 4 9.234 6.238 6.998 8.999 6.998 L 14.595 6.998 L 13.298 8.295 L 13.22 8.382 C 12.91 8.774 12.936 9.346 13.298 9.708 C 13.689 10.098 14.322 10.098 14.712 9.708 L 17.718 6.705 L 17.795 6.618 C 18.106 6.226 18.08 5.654 17.718 5.292 Z M 20.787 8.06 C 20.603 7.828 20.319 7.678 20 7.678 C 19.448 7.678 19 8.126 19 8.677 C 19 8.886 19.064 9.079 19.172 9.238 C 19.695 10.028 20 10.975 20 11.994 C 20 12.309 19.971 12.617 19.915 12.916 C 19.298 12.632 18.612 12.473 17.888 12.473 C 15.322 12.473 13.221 14.466 13.05 16.989 L 9.415 16.989 L 10.709 15.697 L 10.792 15.603 C 11.073 15.241 11.071 14.731 10.786 14.371 L 10.709 14.284 L 10.614 14.2 C 10.252 13.92 9.742 13.922 9.382 14.206 L 9.294 14.284 L 6.289 17.287 L 6.206 17.382 C 5.925 17.744 5.927 18.254 6.212 18.613 L 6.289 18.7 L 9.294 21.703 L 9.389 21.787 C 9.781 22.091 10.348 22.064 10.709 21.703 C 11.071 21.341 11.097 20.77 10.786 20.377 L 10.709 20.29 L 9.405 18.987 L 13.333 18.988 C 14.012 20.845 15.795 22.171 17.888 22.171 C 20.566 22.171 22.737 20 22.737 17.322 C 22.737 16.151 22.322 15.078 21.631 14.24 C 21.87 13.535 22 12.78 22 11.994 C 22 10.534 21.552 9.178 20.787 8.057 Z" style="fill: rgb(33, 33, 33); white-space: pre;"/>
</svg>