<svg width="24" height="24" xmlns="http://www.w3.org/2000/svg" fill="none">

 <g>
  <title>Layer 1</title>
  <path id="svg_1" fill="#212121" d="m3,2.25c-0.55228,0 -1,0.44772 -1,1l0,5.75c0,0.55228 0.44772,1 1,1l5.25,0c0.55228,0 1,-0.44772 1,-1c0,-0.55228 -0.44772,-1 -1,-1l-3.38678,0c0.98442,-1.17852 2.20827,-2.11333 3.68221,-2.56944c2.01447,-0.62337 4.14287,-0.5698 6.10577,0.16034c1.981,0.7369 3.8103,2.23125 4.7218,3.89353c0.2655,0.48426 0.8733,0.66157 1.3576,0.39605c0.4843,-0.26553 0.6616,-0.87336 0.3961,-1.35762c-1.175,-2.14283 -3.4145,-3.92719 -5.7782,-4.80647c-2.382,-0.88606 -4.9637,-0.9486 -7.3943,-0.19644c-1.57618,0.48774 -2.8863,1.37945 -3.9542,2.4588l0,-2.72875c0,-0.55228 -0.44772,-1 -1,-1zm6.75015,9.75c0,-0.4194 -0.26172,-0.7943 -0.65545,-0.9388c-0.39373,-0.1445 -0.8358,-0.0279 -1.10712,0.2919c-0.07402,0.0872 -0.14725,0.1757 -0.22147,0.2654c-0.51532,0.6227 -1.07794,1.3025 -2.28045,2.024c-0.47358,0.2841 -0.62715,0.8984 -0.343,1.372c0.28415,0.4736 0.89841,0.6271 1.37199,0.343c0.48315,-0.2899 0.88922,-0.5813 1.2355,-0.8646l0,5.5069c0,0.5523 0.4478,1 1.00013,1c0.55224,-0.0001 0.99987,-0.4478 0.99987,-1l0,-7.9998z"/>
  <g>
   <path fill="#212121" d="m7.52019,10.92475zm5.72932,0.06135c-0.4976,0 -0.9195,0.36598 -0.9899,0.8587l-0.50003,3.50049c-0.04488,0.3142 0.06202,0.631 0.28807,0.8538c0.22606,0.2228 0.54436,0.325 0.85786,0.2755l1.8205,-0.2875c0.9312,-0.147 1.7735,0.5728 1.7735,1.5157c0,0.8475 -0.6869,1.5344 -1.5342,1.5344l-0.2715,0c-0.4398,0 -0.8646,-0.1605 -1.1944,-0.4515l-0.3384,-0.2985c-0.4142,-0.3654 -1.04609,-0.3258 -1.41143,0.0885c-0.36533,0.4142 -0.32573,1.0462 0.08846,1.4116l0.33835,0.2985c0.69522,0.6133 1.59042,0.9517 2.51742,0.9517l0.2715,0c1.9519,0 3.5342,-1.5825 3.5342,-3.5347c0,-2.172 -1.9403,-3.83021 -4.0854,-3.4915l-0.4831,0.0763l0.1858,-1.30121l3.1327,0c0.5523,0 1,-0.44778 1,-1.00014c0,-0.55236 -0.4477,-1.00014 -1,-1.00014l-4,0z"/>
  </g>
 </g>
</svg>